<?xml version="1.0" encoding="utf-8"?>
<!-- Generator: Adobe Illustrator 23.0.3, SVG Export Plug-In . SVG Version: 6.00 Build 0)  -->
<svg version="1.1" xmlns="http://www.w3.org/2000/svg" xmlns:xlink="http://www.w3.org/1999/xlink" x="0px" y="0px"
	 viewBox="0 0 1826 1705" style="enable-background:new 0 0 1826 1705;" xml:space="preserve">
<style type="text/css">
	.st0{fill:#49001C;}
	.st1{fill:none;stroke:url(#SVGID_1_);stroke-width:10;stroke-miterlimit:10;}
	.st2{fill:none;stroke:url(#SVGID_2_);stroke-width:6;stroke-miterlimit:10;}
</style>
<g id="Layer_2">
	<rect x="125.7" y="173.5" class="st0" width="1574.5" height="1358"/>
	<rect x="5" y="263.5" class="st0" width="1816" height="1178"/>
	<rect x="235.2" y="5" class="st0" width="1355.5" height="1695"/>
</g>
<g id="Layer_1">
	<title>frame_4</title>
	
		<linearGradient id="SVGID_1_" gradientUnits="userSpaceOnUse" x1="0" y1="854.1457" x2="1826" y2="854.1457" gradientTransform="matrix(1 0 0 -1 0 1706.6456)">
		<stop  offset="0" style="stop-color:#D9AC6A"/>
		<stop  offset="0.28" style="stop-color:#C38F53"/>
		<stop  offset="0.31" style="stop-color:#C99558"/>
		<stop  offset="0.52" style="stop-color:#F0BC79"/>
		<stop  offset="0.63" style="stop-color:#FFCB85"/>
		<stop  offset="0.76" style="stop-color:#EEBA76"/>
		<stop  offset="1" style="stop-color:#C38F53"/>
	</linearGradient>
	<polygon class="st1" points="235.2,1700 235.2,1531.5 125.7,1531.5 125.7,1441.5 5,1441.5 5,263.5 125.7,263.5 125.7,173.5 
		235.2,173.5 235.2,5 1590.8,5 1590.8,173.5 1700.3,173.5 1700.3,263.5 1821,263.5 1821,1441.5 1700.3,1441.5 1700.3,1531.5 
		1590.8,1531.5 1590.8,1700 	"/>
	
		<linearGradient id="SVGID_2_" gradientUnits="userSpaceOnUse" x1="27" y1="854.1457" x2="1799" y2="854.1457" gradientTransform="matrix(1 0 0 -1 0 1706.6456)">
		<stop  offset="0" style="stop-color:#D9AC6A"/>
		<stop  offset="0.28" style="stop-color:#C38F53"/>
		<stop  offset="0.31" style="stop-color:#C99558"/>
		<stop  offset="0.52" style="stop-color:#F0BC79"/>
		<stop  offset="0.63" style="stop-color:#FFCB85"/>
		<stop  offset="0.76" style="stop-color:#EEBA76"/>
		<stop  offset="1" style="stop-color:#C38F53"/>
	</linearGradient>
	<polygon class="st2" points="1796,288.5 1675.3,288.5 1675.3,198.5 1565.8,198.5 1565.8,30 260.2,30 260.2,198.5 150.7,198.5 
		150.7,288.5 30,288.5 30,1416.5 150.7,1416.5 150.7,1506.5 260.2,1506.5 260.2,1675 1565.8,1675 1565.8,1506.5 1675.3,1506.5 
		1675.3,1416.5 1796,1416.5 	"/>
</g>
</svg>
